# xmcd
#
# Track frame offsets:
#	150
#	14348
#	27196
#	43553
#	60018
#	74621
#	87712
#	101559
#	115433
#	129496
#	142479
#	155300
#	171549
#	189472
#	205721
#	219757
#	229582
#	245750
#	260488
#	277196
#	289450
#	304026
#
# Disc length: 4264 seconds
#
# Revision: 1
# Processed by: cddbd v1.4PL0 Copyright (c) Steve Scherf et al.
# Submitted via: EasyCDDAExtractor 5.0.7
#
DISCID=5010a616
DTITLE=Various Artist - Bailao
DYEAR=2003
DGENRE=forro
TTITLE0=De sao paulo a belem
TTITLE1=bate o pe 
TTITLE2=A gente se entrega 
TTITLE3=Casa cheia
TTITLE4=Uai uai
TTITLE5=Saudade pulou no peito
TTITLE6=Peao apaixonado
TTITLE7=Deixa a poeira subir
TTITLE8=Uma noite no forro
TTITLE9=Brete na solidao
TTITLE10=To doidao
TTITLE11=Como te esquecer
TTITLE12=pororoca
TTITLE13=Ela nao veio
TTITLE14=Enlouquecer de paixao
TTITLE15=Meu Amor
TTITLE16=Sonhei
TTITLE17=Na virada de 2000
TTITLE18=Saudade Aperta
TTITLE19=Rio Negro - Tudo acabou
TTITLE20=Trem bao 
TTITLE21=O de casa o de fora
EXTD=
EXTT0=
EXTT1=
EXTT2=
EXTT3=
EXTT4=
EXTT5=
EXTT6=
EXTT7=
EXTT8=
EXTT9=
EXTT10=
EXTT11=
EXTT12=
EXTT13=
EXTT14=
EXTT15=
EXTT16=
EXTT17=
EXTT18=
EXTT19=
EXTT20=
EXTT21=
PLAYORDER=
